<svg width="23" height="25" viewBox="0 0 23 25" fill="none" xmlns="http://www.w3.org/2000/svg">
<path d="M1.91667 12.3261C1.91667 10.0142 1.91667 8.85873 2.415 7.90125C2.91142 6.94276 3.82087 6.34888 5.63883 5.1591L7.5555 3.90569C9.47696 2.64824 10.4382 2.02002 11.5 2.02002C12.5618 2.02002 13.5221 2.64824 15.4445 3.90569L17.3612 5.1591C19.1791 6.34888 20.0886 6.94276 20.586 7.90125C21.0833 8.85873 21.0833 10.0142 21.0833 12.325V13.8623C21.0833 17.8013 21.0833 19.7718 19.9602 20.9959C18.838 22.22 17.0305 22.22 13.4167 22.22H9.58333C5.96946 22.22 4.16204 22.22 3.03983 20.9959C1.91667 19.7718 1.91667 17.8023 1.91667 13.8623V12.3261Z" stroke="#848282" stroke-width="1.5"/>
<path d="M11.5 15.15V18.18" stroke="#848282" stroke-width="1.5" stroke-linecap="round"/>
</svg>
