<svg width="18" height="16" viewBox="0 0 18 16" fill="none" xmlns="http://www.w3.org/2000/svg">
<path d="M17.7628 8.73337C17.5289 7.91052 17.1419 7.19292 16.629 6.60927C15.9721 5.8151 15.0993 5.26972 14.1185 5.03052C13.6236 2.63851 12.2378 0.916267 10.2672 0.275209C8.12555 -0.432826 5.64199 0.256073 4.08527 1.98789C2.71751 3.5092 2.2676 5.6046 2.7985 7.83397C0.998822 8.30281 0.107981 9.90067 0.00899838 11.422C-8.38041e-09 11.5272 0 11.6229 0 11.7186C0 13.5174 1.1068 15.5362 3.57236 15.7276H12.9127C14.1905 15.7276 15.4142 15.2205 16.3501 14.3115C17.8168 12.9433 18.3567 10.8096 17.7628 8.73337Z" fill="#3F3F3F"/>
</svg>
