<svg width="23" height="40" viewBox="0 0 23 40" fill="none" xmlns="http://www.w3.org/2000/svg">
<path d="M20.7368 5.49748L14.1194 0.898883C12.3157 -0.356316 9.54693 -0.287851 7.8122 1.04722L2.05645 5.50889C0.907594 6.39894 0 8.22468 0 9.6624V17.5359C0 20.4457 2.37813 22.8192 5.3077 22.8192H17.6923C20.6219 22.8192 23 20.4571 23 17.5473V9.81074C23 8.27033 22.0005 6.37612 20.7368 5.49748ZM12.3616 18.2548C12.3616 18.7227 11.971 19.1106 11.5 19.1106C11.029 19.1106 10.6383 18.7227 10.6383 18.2548V14.8315C10.6383 14.3637 11.029 13.9757 11.5 13.9757C11.971 13.9757 12.3616 14.3637 12.3616 14.8315V18.2548Z" fill="#2F2F2F"/>
<circle cx="11" cy="35.0524" r="4" fill="#FF4A4A"/>
</svg>
