<svg width="29" height="29" viewBox="0 0 29 29" fill="none" xmlns="http://www.w3.org/2000/svg">
<g clip-path="url(#clip0_1_318)">
<path d="M14.5 19.3333C16.502 19.3333 18.125 17.7103 18.125 15.7083C18.125 13.7063 16.502 12.0833 14.5 12.0833C12.498 12.0833 10.875 13.7063 10.875 15.7083C10.875 17.7103 12.498 19.3333 14.5 19.3333Z" stroke="#848282" stroke-width="1.5"/>
<path d="M11.8151 25.375H17.1849C20.9561 25.375 22.8423 25.375 24.1969 24.4869C24.7813 24.1038 25.2847 23.6095 25.6783 23.032C26.5833 21.7029 26.5833 19.8505 26.5833 16.1482C26.5833 12.4446 26.5833 10.5935 25.6783 9.26429C25.2847 8.68684 24.7814 8.1925 24.1969 7.80945C23.3269 7.23791 22.237 7.0337 20.5683 6.9612C19.772 6.9612 19.0868 6.36912 18.931 5.60183C18.8118 5.03979 18.5023 4.53612 18.0547 4.17594C17.6071 3.81575 17.0489 3.62114 16.4744 3.625H12.5256C11.3318 3.625 10.3035 4.4527 10.069 5.60183C9.91317 6.36912 9.22805 6.9612 8.43175 6.9612C6.76426 7.0337 5.67434 7.23912 4.80313 7.80945C4.21904 8.19257 3.71608 8.68691 3.32292 9.26429C2.41667 10.5935 2.41667 12.4446 2.41667 16.1482C2.41667 19.8505 2.41667 21.7017 3.32171 23.032C3.71321 23.6072 4.21588 24.1014 4.80313 24.4869C6.15767 25.375 8.04388 25.375 11.8151 25.375Z" stroke="#848282" stroke-width="1.5"/>
<path d="M22.9583 12.0833H21.75" stroke="#848282" stroke-width="1.5" stroke-linecap="round"/>
<path fill-rule="evenodd" clip-rule="evenodd" d="M11.2781 28H17.7219C22.2474 28 24.5108 28 26.1362 26.8158C26.8376 26.3051 27.4416 25.646 27.9139 24.8761C29 23.1038 29 20.634 29 15.6976C29 10.7595 29 8.29133 27.9139 6.51911C27.4417 5.74918 26.8376 5.09006 26.1362 4.57934C25.0923 3.81728 23.7843 3.54501 21.7819 3.44834C20.8263 3.44834 20.0042 2.6589 19.8172 1.63585C19.6742 0.88647 19.3028 0.214908 18.7657 -0.265339C18.2286 -0.745587 17.5587 -1.00507 16.8693 -0.999925H12.1307C10.6981 -0.999925 9.46415 0.103683 9.18285 1.63585C8.9958 2.6589 8.17365 3.44834 7.2181 3.44834C5.2171 3.54501 3.9092 3.8189 2.86375 4.57934C2.16285 5.09016 1.55929 5.74928 1.0875 6.51911C0 8.29133 0 10.7595 0 15.6976C0 20.634 8.64267e-08 23.1022 1.08605 24.8761C1.55585 25.643 2.15905 26.3019 2.86375 26.8158C4.4892 28 6.75265 28 11.2781 28ZM14.5 9.10655C11.1636 9.10655 8.45785 12.0565 8.45785 15.696C8.45785 19.3371 11.1636 22.2886 14.5 22.2886C17.8365 22.2886 20.5422 19.3371 20.5422 15.6976C20.5422 12.0565 17.8365 9.10655 14.5 9.10655ZM14.5 11.7423C12.499 11.7423 10.875 13.5129 10.875 15.6976C10.875 17.8806 12.499 19.6512 14.5 19.6512C16.501 19.6512 18.125 17.8806 18.125 15.6976C18.125 13.5129 16.501 11.7423 14.5 11.7423ZM21.3469 10.4244C21.3469 9.69621 21.8878 9.10655 22.5562 9.10655H24.1657C24.8327 9.10655 25.375 9.69621 25.375 10.4244C25.3719 10.7771 25.243 11.114 25.0165 11.3611C24.7901 11.6082 24.4846 11.7453 24.1672 11.7423H22.5562C22.3989 11.744 22.2429 11.7113 22.097 11.646C21.9511 11.5807 21.8182 11.4841 21.7059 11.3617C21.5936 11.2393 21.5041 11.0935 21.4425 10.9327C21.3809 10.7719 21.3484 10.5992 21.3469 10.4244Z" fill="black"/>
</g>
<defs>
<clipPath id="clip0_1_318">
<rect width="29" height="29" fill="white"/>
</clipPath>
</defs>
</svg>
