<svg width="20" height="20" viewBox="0 0 20 20" fill="none" xmlns="http://www.w3.org/2000/svg">
<g clip-path="url(#clip0_1_31)">
<path d="M9.47315 17.0001C9.60575 17.0001 9.73293 17.0527 9.8267 17.1465C9.92047 17.2403 9.97315 17.3675 9.97315 17.5001C9.97315 17.6327 9.92047 17.7598 9.8267 17.8536C9.73293 17.9474 9.60575 18.0001 9.47315 18.0001C9.34054 18.0001 9.21336 17.9474 9.11959 17.8536C9.02582 17.7598 8.97315 17.6327 8.97315 17.5001C8.97315 17.3675 9.02582 17.2403 9.11959 17.1465C9.21336 17.0527 9.34054 17.0001 9.47315 17.0001ZM12.4731 17.0001C12.6058 17.0001 12.7329 17.0527 12.8267 17.1465C12.9205 17.2403 12.9731 17.3675 12.9731 17.5001C12.9731 17.6327 12.9205 17.7598 12.8267 17.8536C12.7329 17.9474 12.6058 18.0001 12.4731 18.0001C12.3405 18.0001 12.2134 17.9474 12.1196 17.8536C12.0258 17.7598 11.9731 17.6327 11.9731 17.5001C11.9731 17.3675 12.0258 17.2403 12.1196 17.1465C12.2134 17.0527 12.3405 17.0001 12.4731 17.0001ZM7.97315 16.0001C8.10575 16.0001 8.23293 16.0527 8.3267 16.1465C8.42047 16.2403 8.47315 16.3675 8.47315 16.5001C8.47315 16.6327 8.42047 16.7598 8.3267 16.8536C8.23293 16.9474 8.10575 17.0001 7.97315 17.0001C7.84054 17.0001 7.71336 16.9474 7.61959 16.8536C7.52583 16.7598 7.47315 16.6327 7.47315 16.5001C7.47315 16.3675 7.52583 16.2403 7.61959 16.1465C7.71336 16.0527 7.84054 16.0001 7.97315 16.0001ZM10.9731 16.0001C11.1058 16.0001 11.2329 16.0527 11.3267 16.1465C11.4205 16.2403 11.4731 16.3675 11.4731 16.5001C11.4731 16.6327 11.4205 16.7598 11.3267 16.8536C11.2329 16.9474 11.1058 17.0001 10.9731 17.0001C10.8405 17.0001 10.7134 16.9474 10.6196 16.8536C10.5258 16.7598 10.4731 16.6327 10.4731 16.5001C10.4731 16.3675 10.5258 16.2403 10.6196 16.1465C10.7134 16.0527 10.8405 16.0001 10.9731 16.0001ZM13.9731 16.0001C14.1058 16.0001 14.2329 16.0527 14.3267 16.1465C14.4205 16.2403 14.4731 16.3675 14.4731 16.5001C14.4731 16.6327 14.4205 16.7598 14.3267 16.8536C14.2329 16.9474 14.1058 17.0001 13.9731 17.0001C13.8405 17.0001 13.7134 16.9474 13.6196 16.8536C13.5258 16.7598 13.4731 16.6327 13.4731 16.5001C13.4731 16.3675 13.5258 16.2403 13.6196 16.1465C13.7134 16.0527 13.8405 16.0001 13.9731 16.0001ZM10.9731 6.00006C13.4371 6.00006 14.8361 7.57306 15.0391 9.47406H15.1011C16.6871 9.47406 17.9731 10.7111 17.9731 12.2371C17.9731 13.7631 16.6871 15.0001 15.1011 15.0001H6.84515C5.25915 15.0001 3.97315 13.7631 3.97315 12.2371C3.97315 10.7111 5.25915 9.47406 6.84515 9.47406H6.90715C7.11115 7.56006 8.50815 6.00006 10.9731 6.00006ZM3.77615 8.70006C3.81459 8.81093 3.81281 8.93178 3.77113 9.04147C3.72945 9.15116 3.65052 9.2427 3.54815 9.30006L3.46615 9.33606L2.66515 9.61206C2.54694 9.65342 2.41751 9.64892 2.30246 9.59944C2.18742 9.54997 2.09513 9.45912 2.04384 9.34486C1.99256 9.23061 1.98602 9.10127 2.02552 8.98243C2.06502 8.86358 2.14767 8.76389 2.25715 8.70306L2.33915 8.66706L3.14115 8.39106C3.26646 8.34805 3.40373 8.35655 3.52279 8.41467C3.64185 8.4728 3.73297 8.5758 3.77615 8.70106V8.70006ZM8.89315 4.50006C9.22515 4.66206 9.51815 4.87306 9.76615 5.12006C8.00415 5.48406 6.73615 6.65306 6.22315 8.27606L6.15815 8.50006L6.11215 8.68706L5.94615 8.71706C5.50252 8.8084 5.07906 8.97914 4.69615 9.22106C4.30962 8.61897 4.13057 7.90702 4.18627 7.19372C4.24198 6.48041 4.52939 5.80488 5.0047 5.27011C5.48001 4.73533 6.11714 4.37063 6.81898 4.23161C7.52082 4.09258 8.24887 4.18686 8.89215 4.50006H8.89315ZM2.89015 4.67006L2.97315 4.70206L3.73515 5.07306C3.84748 5.12767 3.93531 5.22234 3.98134 5.33845C4.02738 5.45456 4.02829 5.5837 3.9839 5.70045C3.93951 5.81719 3.85303 5.9131 3.74148 5.96929C3.62993 6.02548 3.50138 6.03788 3.38115 6.00406L3.29615 5.97206L2.53515 5.60106C2.42281 5.54645 2.33498 5.45178 2.28895 5.33567C2.24291 5.21956 2.242 5.09042 2.28639 4.97367C2.33078 4.85692 2.41726 4.76102 2.52882 4.70483C2.64037 4.64864 2.76891 4.63623 2.88915 4.67006H2.89015ZM9.96315 2.29506C10.0684 2.34643 10.1523 2.43314 10.2002 2.54005C10.2481 2.64697 10.2569 2.7673 10.2251 2.88006L10.1931 2.96406L9.82215 3.72606C9.76754 3.83839 9.67286 3.92622 9.55675 3.97226C9.44064 4.01829 9.31151 4.01921 9.19476 3.97481C9.07801 3.93042 8.9821 3.84394 8.92591 3.73239C8.86973 3.62084 8.85732 3.4923 8.89115 3.37206L8.92315 3.28706L9.29415 2.52506C9.32295 2.46588 9.36314 2.41297 9.41244 2.36937C9.46173 2.32576 9.51914 2.29231 9.58139 2.27094C9.64364 2.24958 9.70949 2.24071 9.77517 2.24484C9.84085 2.24898 9.90507 2.26605 9.96415 2.29506H9.96315ZM6.17315 2.26306L6.21015 2.34506L6.48615 3.14706C6.52672 3.26511 6.52166 3.39408 6.47197 3.50859C6.42228 3.62311 6.33155 3.7149 6.21762 3.76591C6.10368 3.81692 5.97479 3.82347 5.85627 3.78427C5.73775 3.74507 5.63819 3.66295 5.57715 3.55406L5.54015 3.47206L5.26515 2.67106C5.22521 2.55328 5.2306 2.42485 5.28026 2.31083C5.32993 2.19681 5.4203 2.1054 5.53373 2.05442C5.64717 2.00345 5.77553 1.99658 5.89376 2.03516C6.01199 2.07374 6.1116 2.15499 6.17315 2.26306Z" fill="black"/>
</g>
<defs>
<clipPath id="clip0_1_31">
<rect width="20" height="20" fill="white"/>
</clipPath>
</defs>
</svg>
