<svg width="23" height="21" viewBox="0 0 23 21" fill="none" xmlns="http://www.w3.org/2000/svg">
<path d="M22.1977 5.32589H15.7791C15.3405 5.32589 14.9768 4.96373 14.9768 4.52701C14.9768 4.09029 15.3405 3.72813 15.7791 3.72813H22.1977C22.6363 3.72813 23 4.09029 23 4.52701C23 4.96373 22.6363 5.32589 22.1977 5.32589Z" fill="#888888"/>
<path d="M5.08139 5.32594H0.802324C0.36372 5.32594 0 4.96378 0 4.52705C0 4.09033 0.36372 3.72817 0.802324 3.72817H5.08139C5.51999 3.72817 5.88371 4.09033 5.88371 4.52705C5.88371 4.96378 5.51999 5.32594 5.08139 5.32594Z" fill="#888888"/>
<path d="M9.36051 9.054C6.85726 9.054 4.814 7.01951 4.814 4.527C4.814 2.03449 6.85726 0 9.36051 0C11.8638 0 13.907 2.03449 13.907 4.527C13.907 7.01951 11.8638 9.054 9.36051 9.054ZM9.36051 1.59776C7.73447 1.59776 6.41865 2.90793 6.41865 4.527C6.41865 6.14607 7.73447 7.45624 9.36051 7.45624C10.9866 7.45624 12.3024 6.14607 12.3024 4.527C12.3024 2.90793 10.9866 1.59776 9.36051 1.59776Z" fill="#888888"/>
<path d="M22.1977 17.0428H17.9186C17.48 17.0428 17.1163 16.6807 17.1163 16.2439C17.1163 15.8072 17.48 15.445 17.9186 15.445H22.1977C22.6363 15.445 23 15.8072 23 16.2439C23 16.6807 22.6363 17.0428 22.1977 17.0428Z" fill="#888888"/>
<path d="M7.22092 17.0429H0.802325C0.36372 17.0429 0 16.6807 0 16.244C0 15.8073 0.36372 15.4451 0.802325 15.4451H7.22092C7.65952 15.4451 8.02325 15.8073 8.02325 16.244C8.02325 16.6807 7.65952 17.0429 7.22092 17.0429Z" fill="#888888"/>
<path d="M13.6394 20.7709C11.1362 20.7709 9.09294 18.7364 9.09294 16.2439C9.09294 13.7514 11.1362 11.7169 13.6394 11.7169C16.1427 11.7169 18.1859 13.7514 18.1859 16.2439C18.1859 18.7364 16.1427 20.7709 13.6394 20.7709ZM13.6394 13.3147C12.0134 13.3147 10.6976 14.6249 10.6976 16.2439C10.6976 17.863 12.0134 19.1732 13.6394 19.1732C15.2655 19.1732 16.5813 17.863 16.5813 16.2439C16.5813 14.6249 15.2655 13.3147 13.6394 13.3147Z" fill="#888888"/>
</svg>
