<svg width="16" height="18" viewBox="0 0 16 18" fill="none" xmlns="http://www.w3.org/2000/svg">
<path d="M8 0C3.592 0 0 3.81939 0 8.50644C0 13.1935 3.592 17.0129 8 17.0129C12.408 17.0129 16 13.1935 16 8.50644C16 3.81939 12.408 0 8 0ZM11.48 11.5432C11.368 11.7474 11.168 11.858 10.96 11.858C10.856 11.858 10.752 11.8325 10.656 11.7644L8.176 10.1907C7.56 9.79942 7.104 8.94027 7.104 8.18319V4.69555C7.104 4.34679 7.376 4.05757 7.704 4.05757C8.032 4.05757 8.304 4.34679 8.304 4.69555V8.18319C8.304 8.48942 8.544 8.94027 8.792 9.09338L11.272 10.6671C11.56 10.8457 11.656 11.237 11.48 11.5432Z" fill="#3F3F3F"/>
</svg>
