<svg width="16" height="15" viewBox="0 0 16 15" fill="none" xmlns="http://www.w3.org/2000/svg">
<path d="M7.48571 13.7488C7.61854 13.7488 7.74593 13.7972 7.83986 13.8832C7.93378 13.9692 7.98655 14.0858 7.98655 14.2075C7.98655 14.3291 7.93378 14.4457 7.83986 14.5317C7.74593 14.6178 7.61854 14.6661 7.48571 14.6661C7.35288 14.6661 7.22549 14.6178 7.13156 14.5317C7.03764 14.4457 6.98487 14.3291 6.98487 14.2075C6.98487 14.0858 7.03764 13.9692 7.13156 13.8832C7.22549 13.7972 7.35288 13.7488 7.48571 13.7488ZM10.4908 13.7488C10.6236 13.7488 10.751 13.7972 10.8449 13.8832C10.9388 13.9692 10.9916 14.0858 10.9916 14.2075C10.9916 14.3291 10.9388 14.4457 10.8449 14.5317C10.751 14.6178 10.6236 14.6661 10.4908 14.6661C10.3579 14.6661 10.2305 14.6178 10.1366 14.5317C10.0427 14.4457 9.98991 14.3291 9.98991 14.2075C9.98991 14.0858 10.0427 13.9692 10.1366 13.8832C10.2305 13.7972 10.3579 13.7488 10.4908 13.7488ZM5.98319 12.8316C6.11602 12.8316 6.24341 12.8799 6.33734 12.9659C6.43126 13.0519 6.48403 13.1686 6.48403 13.2902C6.48403 13.4119 6.43126 13.5285 6.33734 13.6145C6.24341 13.7005 6.11602 13.7488 5.98319 13.7488C5.85036 13.7488 5.72297 13.7005 5.62904 13.6145C5.53512 13.5285 5.48235 13.4119 5.48235 13.2902C5.48235 13.1686 5.53512 13.0519 5.62904 12.9659C5.72297 12.8799 5.85036 12.8316 5.98319 12.8316ZM8.98823 12.8316C9.12106 12.8316 9.24846 12.8799 9.34238 12.9659C9.43631 13.0519 9.48907 13.1686 9.48907 13.2902C9.48907 13.4119 9.43631 13.5285 9.34238 13.6145C9.24846 13.7005 9.12106 13.7488 8.98823 13.7488C8.8554 13.7488 8.72801 13.7005 8.63408 13.6145C8.54016 13.5285 8.48739 13.4119 8.48739 13.2902C8.48739 13.1686 8.54016 13.0519 8.63408 12.9659C8.72801 12.8799 8.8554 12.8316 8.98823 12.8316ZM11.9933 12.8316C12.1261 12.8316 12.2535 12.8799 12.3474 12.9659C12.4414 13.0519 12.4941 13.1686 12.4941 13.2902C12.4941 13.4119 12.4414 13.5285 12.3474 13.6145C12.2535 13.7005 12.1261 13.7488 11.9933 13.7488C11.8604 13.7488 11.7331 13.7005 11.6391 13.6145C11.5452 13.5285 11.4924 13.4119 11.4924 13.2902C11.4924 13.1686 11.5452 13.0519 11.6391 12.9659C11.7331 12.8799 11.8604 12.8316 11.9933 12.8316ZM8.98823 3.65934C11.4564 3.65934 12.8577 5.10214 13.0611 6.84579H13.1232C14.7118 6.84579 16 7.9804 16 9.38009C16 10.7798 14.7118 11.9144 13.1232 11.9144H4.85329C3.26463 11.9144 1.97646 10.7798 1.97646 9.38009C1.97646 7.9804 3.26463 6.84579 4.85329 6.84579H4.9154C5.11974 5.09021 6.51909 3.65934 8.98823 3.65934ZM1.77913 6.13585C1.81764 6.23754 1.81586 6.3484 1.77411 6.44901C1.73236 6.54962 1.65329 6.63358 1.55075 6.68619L1.46861 6.71921L0.666265 6.97236C0.547858 7.01031 0.418214 7.00618 0.302973 6.96079C0.187732 6.91541 0.0952849 6.83208 0.0439162 6.72729C-0.00745263 6.62249 -0.0140026 6.50385 0.0255617 6.39485C0.065126 6.28584 0.147923 6.1944 0.257579 6.1386L0.339716 6.10558L1.14306 5.85243C1.26859 5.81298 1.40609 5.82077 1.52535 5.87409C1.64461 5.9274 1.73589 6.02188 1.77913 6.13677V6.13585ZM6.90474 2.28349C7.23729 2.43209 7.53079 2.62562 7.7792 2.85218C6.01424 3.18605 4.74411 4.25829 4.23025 5.74695L4.16514 5.95241L4.11906 6.12393L3.95278 6.15144C3.50841 6.23523 3.08423 6.39184 2.70068 6.61373C2.3135 6.06148 2.13415 5.40845 2.18995 4.75419C2.24575 4.09993 2.53364 3.48032 3.00975 2.9898C3.48586 2.49929 4.12406 2.16478 4.82708 2.03726C5.5301 1.90975 6.25937 1.99622 6.90373 2.28349H6.90474ZM0.891643 2.43942L0.974782 2.46877L1.73806 2.80907C1.85059 2.85915 1.93856 2.94599 1.98468 3.05249C2.03079 3.15899 2.0317 3.27744 1.98724 3.38452C1.94277 3.49161 1.85614 3.57958 1.7444 3.63111C1.63267 3.68265 1.50391 3.69403 1.38347 3.66301L1.29833 3.63365L0.536046 3.29336C0.423523 3.24327 0.335548 3.15644 0.289434 3.04994C0.243319 2.94344 0.242406 2.82499 0.286873 2.71791C0.331339 2.61082 0.417966 2.52285 0.529705 2.47131C0.641444 2.41978 0.770202 2.4084 0.890641 2.43942H0.891643ZM7.97653 0.261007C8.082 0.308125 8.16604 0.387656 8.21401 0.485722C8.26197 0.583788 8.27081 0.694163 8.23898 0.797585L8.20692 0.874632L7.8353 1.57356C7.7806 1.6766 7.68576 1.75715 7.56946 1.79938C7.45315 1.84161 7.3238 1.84244 7.20685 1.80173C7.08991 1.76101 6.99384 1.68168 6.93756 1.57937C6.88128 1.47705 6.86885 1.35915 6.90273 1.24886L6.93479 1.1709L7.30641 0.471969C7.33526 0.417691 7.37552 0.369161 7.4249 0.329163C7.47427 0.289166 7.53179 0.258488 7.59414 0.238888C7.65649 0.219288 7.72245 0.211153 7.78824 0.214949C7.85404 0.218745 7.91836 0.234397 7.97754 0.261007H7.97653ZM4.18016 0.231656L4.21722 0.306868L4.49369 1.04249C4.53433 1.15077 4.52926 1.26906 4.47949 1.37409C4.42972 1.47913 4.33883 1.56332 4.22471 1.61011C4.11058 1.6569 3.98147 1.66291 3.86276 1.62695C3.74404 1.59099 3.64431 1.51567 3.58316 1.4158L3.5461 1.34058L3.27064 0.605885C3.23063 0.497856 3.23603 0.380054 3.28578 0.275474C3.33552 0.170895 3.42605 0.0870439 3.53968 0.0402908C3.6533 -0.00646218 3.78188 -0.0127616 3.90031 0.0226222C4.01874 0.0580061 4.11851 0.132533 4.18016 0.231656Z" fill="black"/>
</svg>
