<svg width="29" height="12" viewBox="0 0 29 12" fill="none" xmlns="http://www.w3.org/2000/svg">
<path d="M28.2247 6.48427C28.6529 6.48427 29 6.13717 29 5.709C29 5.28084 28.6529 4.93374 28.2247 4.93374V6.48427ZM0.227129 5.16081C-0.0756283 5.46357 -0.0756283 5.95444 0.227129 6.2572L5.16086 11.1909C5.46362 11.4937 5.95449 11.4937 6.25725 11.1909C6.56001 10.8882 6.56001 10.3973 6.25725 10.0945L1.87171 5.709L6.25725 1.32346C6.56001 1.0207 6.56001 0.529837 6.25725 0.227078C5.95449 -0.0756805 5.46362 -0.0756805 5.16086 0.227078L0.227129 5.16081ZM28.2247 4.93374L0.775323 4.93374V6.48427L28.2247 6.48427V4.93374Z" fill="black"/>
</svg>
