<svg width="25" height="25" viewBox="0 0 25 25" fill="none" xmlns="http://www.w3.org/2000/svg">
<path d="M3.125 1.5625C2.7106 1.5625 2.31317 1.72712 2.02015 2.02015C1.72712 2.31317 1.5625 2.7106 1.5625 3.125V15.625C1.5625 16.0394 1.72712 16.4368 2.02015 16.7299C2.31317 17.0229 2.7106 17.1875 3.125 17.1875H18.1031C18.9319 17.1877 19.7266 17.517 20.3125 18.1031L23.4375 21.2281V3.125C23.4375 2.7106 23.2729 2.31317 22.9799 2.02015C22.6868 1.72712 22.2894 1.5625 21.875 1.5625H3.125ZM21.875 0C22.7038 0 23.4987 0.32924 24.0847 0.915291C24.6708 1.50134 25 2.2962 25 3.125V23.1141C25 23.2687 24.9541 23.4198 24.8681 23.5482C24.7822 23.6767 24.6601 23.7768 24.5172 23.8359C24.3743 23.8949 24.2172 23.9103 24.0656 23.88C23.914 23.8497 23.7748 23.7751 23.6656 23.6656L19.2078 19.2078C18.9149 18.9148 18.5175 18.7501 18.1031 18.75H3.125C2.2962 18.75 1.50134 18.4208 0.915291 17.8347C0.32924 17.2487 0 16.4538 0 15.625V3.125C0 2.2962 0.32924 1.50134 0.915291 0.915291C1.50134 0.32924 2.2962 0 3.125 0L21.875 0Z" fill="#848282"/>
<path d="M4.6875 5.46875C4.6875 5.26155 4.76981 5.06284 4.91632 4.91632C5.06284 4.76981 5.26155 4.6875 5.46875 4.6875H19.5312C19.7385 4.6875 19.9372 4.76981 20.0837 4.91632C20.2302 5.06284 20.3125 5.26155 20.3125 5.46875C20.3125 5.67595 20.2302 5.87466 20.0837 6.02118C19.9372 6.16769 19.7385 6.25 19.5312 6.25H5.46875C5.26155 6.25 5.06284 6.16769 4.91632 6.02118C4.76981 5.87466 4.6875 5.67595 4.6875 5.46875ZM4.6875 9.375C4.6875 9.1678 4.76981 8.96909 4.91632 8.82257C5.06284 8.67606 5.26155 8.59375 5.46875 8.59375H19.5312C19.7385 8.59375 19.9372 8.67606 20.0837 8.82257C20.2302 8.96909 20.3125 9.1678 20.3125 9.375C20.3125 9.5822 20.2302 9.78091 20.0837 9.92743C19.9372 10.0739 19.7385 10.1562 19.5312 10.1562H5.46875C5.26155 10.1562 5.06284 10.0739 4.91632 9.92743C4.76981 9.78091 4.6875 9.5822 4.6875 9.375ZM4.6875 13.2812C4.6875 13.074 4.76981 12.8753 4.91632 12.7288C5.06284 12.5823 5.26155 12.5 5.46875 12.5H13.2812C13.4885 12.5 13.6872 12.5823 13.8337 12.7288C13.9802 12.8753 14.0625 13.074 14.0625 13.2812C14.0625 13.4885 13.9802 13.6872 13.8337 13.8337C13.6872 13.9802 13.4885 14.0625 13.2812 14.0625H5.46875C5.26155 14.0625 5.06284 13.9802 4.91632 13.8337C4.76981 13.6872 4.6875 13.4885 4.6875 13.2812Z" fill="#848282"/>
</svg>
