<svg width="28" height="27" viewBox="0 0 28 27" fill="none" xmlns="http://www.w3.org/2000/svg">
<path d="M23.3333 2.41992H4.66667C3.2 2.41992 2 3.56992 2 4.97548V22.8644C2 24.2699 3.2 25.4199 4.66667 25.4199H23.3333C24.8 25.4199 26 24.2699 26 22.8644V4.97548C26 3.56992 24.8 2.41992 23.3333 2.41992ZM15.3333 20.3088H8.66667C7.93333 20.3088 7.33333 19.7338 7.33333 19.031C7.33333 18.3283 7.93333 17.7533 8.66667 17.7533H15.3333C16.0667 17.7533 16.6667 18.3283 16.6667 19.031C16.6667 19.7338 16.0667 20.3088 15.3333 20.3088ZM19.3333 15.1977H8.66667C7.93333 15.1977 7.33333 14.6227 7.33333 13.9199C7.33333 13.2171 7.93333 12.6421 8.66667 12.6421H19.3333C20.0667 12.6421 20.6667 13.2171 20.6667 13.9199C20.6667 14.6227 20.0667 15.1977 19.3333 15.1977ZM19.3333 10.0866H8.66667C7.93333 10.0866 7.33333 9.51159 7.33333 8.80881C7.33333 8.10603 7.93333 7.53103 8.66667 7.53103H19.3333C20.0667 7.53103 20.6667 8.10603 20.6667 8.80881C20.6667 9.51159 20.0667 10.0866 19.3333 10.0866Z" fill="black"/>
</svg>
