<svg width="29" height="29" viewBox="0 0 29 29" fill="none" xmlns="http://www.w3.org/2000/svg">
<path d="M14.5 19.3333C16.502 19.3333 18.125 17.7104 18.125 15.7083C18.125 13.7063 16.502 12.0833 14.5 12.0833C12.498 12.0833 10.875 13.7063 10.875 15.7083C10.875 17.7104 12.498 19.3333 14.5 19.3333Z" stroke="#848282" stroke-width="1.5"/>
<path d="M11.8151 25.375H17.1849C20.9561 25.375 22.8424 25.375 24.1969 24.4869C24.7814 24.1038 25.2847 23.6095 25.6783 23.032C26.5834 21.7029 26.5834 19.8505 26.5834 16.1482C26.5834 12.4446 26.5834 10.5935 25.6783 9.26429C25.2847 8.68684 24.7814 8.1925 24.1969 7.80945C23.3269 7.23791 22.237 7.0337 20.5683 6.9612C19.772 6.9612 19.0869 6.36912 18.931 5.60183C18.8119 5.03979 18.5023 4.53612 18.0548 4.17594C17.6072 3.81575 17.0489 3.62114 16.4744 3.625H12.5256C11.3318 3.625 10.3035 4.4527 10.0691 5.60183C9.91319 6.36912 9.22806 6.9612 8.43177 6.9612C6.76427 7.0337 5.67435 7.23912 4.80315 7.80945C4.21906 8.19257 3.7161 8.68691 3.32294 9.26429C2.41669 10.5935 2.41669 12.4446 2.41669 16.1482C2.41669 19.8505 2.41669 21.7017 3.32173 23.032C3.71323 23.6072 4.2159 24.1014 4.80315 24.4869C6.15769 25.375 8.04389 25.375 11.8151 25.375Z" stroke="#848282" stroke-width="1.5"/>
<path d="M22.9583 12.0833H21.75" stroke="#848282" stroke-width="1.5" stroke-linecap="round"/>
</svg>
